<?xml version="1.0" encoding="UTF-8"?><svg xmlns="http://www.w3.org/2000/svg" width="24" height="24" viewBox="0 0 24 24"><path fill="#ffff" d="M12 10c-.1 0-.2 0-.3-.1l-11-4C.3 5.8 0 5.4 0 5s.3-.8.7-.9l11-4c.2-.1.5-.1.7 0l11 4c.3.1.6.5.6.9s-.3.8-.7.9l-11 4c-.1.1-.2.1-.3.1zM3.9 5L12 7.9 20.1 5 12 2.1 3.9 5zM12 24c-.1 0-.2 0-.3-.1l-11-4c-.5-.2-.8-.8-.6-1.3.2-.5.8-.8 1.3-.6L12 21.9 22.7 18c.5-.2 1.1.1 1.3.6.2.5-.1 1.1-.6 1.3l-11 4c-.2.1-.3.1-.4.1z"/><path fill="#ffff" d="M12 24c-.6 0-1-.4-1-1V9c0-.6.4-1 1-1s1 .4 1 1v14c0 .6-.4 1-1 1zm11-4c-.6 0-1-.4-1-1V5c0-.6.4-1 1-1s1 .4 1 1v14c0 .6-.4 1-1 1zM1 20c-.6 0-1-.4-1-1V5c0-.6.4-1 1-1s1 .4 1 1v14c0 .6-.4 1-1 1z"/><metadata><rdf:RDF xmlns:rdf="http://www.w3.org/1999/02/22-rdf-syntax-ns#" xmlns:rdfs="http://www.w3.org/2000/01/rdf-schema#" xmlns:dc="http://purl.org/dc/elements/1.1/"><rdf:Description about="https://iconscout.com/legal#licenses" dc:title="cube" dc:description="cube" dc:publisher="Iconscout" dc:date="2017-09-14" dc:format="image/svg+xml" dc:language="en"><dc:creator><rdf:Bag><rdf:li>Cosmin Negoita</rdf:li></rdf:Bag></dc:creator></rdf:Description></rdf:RDF></metadata></svg>