<svg xmlns="http://www.w3.org/2000/svg" viewBox="0 0 32 32"><g data-name="Layer 51"><path fill="#ffff" d="M16,2A14,14,0,1,0,30,16,14,14,0,0,0,16,2Zm0,26A12,12,0,1,1,28,16,12,12,0,0,1,16,28Z"/><path fill="#ffff" d="M18 6H14a4 4 0 0 0-4 4v2a1 1 0 0 0 2 0V10a2 2 0 0 1 2-2h4a2 2 0 0 1 2 2v3.09a2 2 0 0 1-.72 1.54L16.44 17A4 4 0 0 0 15 20.07v1.86a1 1 0 0 0 2 0V20.07a2 2 0 0 1 .72-1.53l2.84-2.37A4 4 0 0 0 22 13.09V10A4 4 0 0 0 18 6zM16 24a1 1 0 0 0-1 1v.12a1 1 0 0 0 2 0V25A1 1 0 0 0 16 24z"/></g></svg>